<svg width="55" height="41" viewBox="0 0 55 41" fill="none" xmlns="http://www.w3.org/2000/svg">
<path fill-rule="evenodd" clip-rule="evenodd" d="M38.9733 7.96207C39.0497 8.41271 39.1178 8.80051 39.1549 9.00529C39.3835 10.2507 39.5758 13.413 40.4575 15.5637C41.1296 17.2047 42.2037 18.2635 43.8374 17.8822C45.3222 17.5356 46.2464 16.0553 46.6913 14.0088C47.6486 9.60428 46.4942 2.56792 45.5965 0.532271C45.4983 0.310093 45.2396 0.209385 45.0174 0.307506C44.7962 0.405126 44.6955 0.663848 44.7937 0.886026C45.6546 2.83972 46.7526 9.59419 45.8337 13.8226C45.4742 15.4753 44.8368 16.7475 43.6373 17.0273C42.4536 17.304 41.7571 16.4208 41.2699 15.2312C40.4114 13.1383 40.2404 10.0595 40.0185 8.84674C39.879 8.08652 39.4288 5.17214 39.33 4.93164C39.2066 4.6304 38.9511 4.63863 38.8675 4.64763C38.8026 4.65452 38.4816 4.70975 38.4671 5.10852C38.2561 10.7945 33.9968 19.3736 27.7318 25.1166C21.5219 30.8091 13.3116 33.7125 5.08632 28.0656C4.88628 27.9288 4.61278 27.9797 4.47549 28.1788C4.33872 28.3788 4.38964 28.6523 4.58968 28.7891C13.2081 34.7057 21.8191 31.7277 28.3247 25.7642C33.8077 20.7383 37.7734 13.5895 38.9733 7.96207Z" fill="#0D121F"/>
<path fill-rule="evenodd" clip-rule="evenodd" d="M5.30486 28.6629C6.33636 28.5779 7.36613 28.5262 8.39162 28.361C11.1238 27.9215 13.8697 26.8862 16.0856 25.2122C16.2792 25.0652 16.317 24.7901 16.1715 24.5969C16.0246 24.4033 15.7494 24.3656 15.5563 24.5111C13.4542 26.1011 10.8446 27.0771 8.25239 27.4939C7.07848 27.6823 5.89756 27.7203 4.71619 27.833C4.6573 27.8393 4.14246 27.8726 4.03575 27.9095C3.78673 27.994 3.73754 28.188 3.7263 28.2806C3.71594 28.358 3.72206 28.453 3.77233 28.5592C3.81404 28.646 3.93193 28.7923 4.13116 28.9543C4.76772 29.4754 6.42685 30.4776 6.68176 30.6709C9.60431 32.8866 11.9513 35.4386 14.4894 38.0636C14.6585 38.2372 14.9368 38.2422 15.111 38.0741C15.2851 37.906 15.2892 37.6281 15.121 37.454C12.551 34.7955 10.1707 32.2146 7.2123 29.9724C7.03754 29.8389 6.02886 29.1531 5.30486 28.6629Z" fill="#0D121F"/>
</svg>
